<svg width="375" height="812" viewBox="0 0 375 812" fill="none" xmlns="http://www.w3.org/2000/svg">
<g clip-path="url(#clip0_1_126)">
<rect width="375" height="812" fill="white"/>
<g filter="url(#filter0_f_1_126)">
<circle cx="363" cy="262" r="30" fill="url(#paint0_linear_1_126)"/>
</g>
<g filter="url(#filter1_f_1_126)">
<circle cx="105" cy="453" r="29" fill="url(#paint1_linear_1_126)"/>
</g>
<g filter="url(#filter2_f_1_126)">
<circle cx="269" cy="796" r="29" fill="url(#paint2_linear_1_126)"/>
</g>
<g filter="url(#filter3_f_1_126)">
<circle cx="20" cy="161" r="35" fill="url(#paint3_linear_1_126)"/>
</g>
<g filter="url(#filter4_f_1_126)">
<circle cx="298" cy="35" r="35" fill="url(#paint4_linear_1_126)"/>
</g>
<path fill-rule="evenodd" clip-rule="evenodd" d="M317.835 713.007L317.837 713.361C317.849 714.765 317.933 716.018 318.079 716.812C318.079 716.827 318.239 717.614 318.34 717.876C318.499 718.255 318.787 718.577 319.148 718.781C319.438 718.926 319.741 719 320.058 719C320.308 718.988 320.719 718.863 321.013 718.758L321.257 718.664C322.874 718.022 325.964 715.923 327.148 714.64L327.235 714.55L327.625 714.13C327.87 713.809 328 713.415 328 712.992C328 712.613 327.884 712.234 327.653 711.928C327.584 711.829 327.472 711.702 327.373 711.594L326.994 711.197C325.69 709.876 322.865 708.022 321.401 707.408C321.401 707.394 320.491 707.014 320.058 707H320C319.336 707 318.715 707.379 318.398 707.991C318.311 708.159 318.228 708.487 318.165 708.775L318.051 709.319C317.921 710.193 317.835 711.535 317.835 713.007ZM311.503 711.482C310.673 711.482 310 712.161 310 713C310 713.838 310.673 714.517 311.503 714.517L315.202 714.19C315.854 714.19 316.382 713.658 316.382 713C316.382 712.342 315.854 711.809 315.202 711.809L311.503 711.482Z" fill="white"/>
</g>
<defs>
<filter id="filter0_f_1_126" x="233" y="132" width="260" height="260" filterUnits="userSpaceOnUse" color-interpolation-filters="sRGB">
<feFlood flood-opacity="0" result="BackgroundImageFix"/>
<feBlend mode="normal" in="SourceGraphic" in2="BackgroundImageFix" result="shape"/>
<feGaussianBlur stdDeviation="50" result="effect1_foregroundBlur_1_126"/>
</filter>
<filter id="filter1_f_1_126" x="-24" y="324" width="258" height="258" filterUnits="userSpaceOnUse" color-interpolation-filters="sRGB">
<feFlood flood-opacity="0" result="BackgroundImageFix"/>
<feBlend mode="normal" in="SourceGraphic" in2="BackgroundImageFix" result="shape"/>
<feGaussianBlur stdDeviation="50" result="effect1_foregroundBlur_1_126"/>
</filter>
<filter id="filter2_f_1_126" x="140" y="667" width="258" height="258" filterUnits="userSpaceOnUse" color-interpolation-filters="sRGB">
<feFlood flood-opacity="0" result="BackgroundImageFix"/>
<feBlend mode="normal" in="SourceGraphic" in2="BackgroundImageFix" result="shape"/>
<feGaussianBlur stdDeviation="50" result="effect1_foregroundBlur_1_126"/>
</filter>
<filter id="filter3_f_1_126" x="-115" y="26" width="270" height="270" filterUnits="userSpaceOnUse" color-interpolation-filters="sRGB">
<feFlood flood-opacity="0" result="BackgroundImageFix"/>
<feBlend mode="normal" in="SourceGraphic" in2="BackgroundImageFix" result="shape"/>
<feGaussianBlur stdDeviation="50" result="effect1_foregroundBlur_1_126"/>
</filter>
<filter id="filter4_f_1_126" x="163" y="-100" width="270" height="270" filterUnits="userSpaceOnUse" color-interpolation-filters="sRGB">
<feFlood flood-opacity="0" result="BackgroundImageFix"/>
<feBlend mode="normal" in="SourceGraphic" in2="BackgroundImageFix" result="shape"/>
<feGaussianBlur stdDeviation="50" result="effect1_foregroundBlur_1_126"/>
</filter>
<linearGradient id="paint0_linear_1_126" x1="363" y1="232" x2="363" y2="292" gradientUnits="userSpaceOnUse">
<stop stop-color="#2555FF"/>
<stop offset="1" stop-color="#2555FF" stop-opacity="0.25"/>
</linearGradient>
<linearGradient id="paint1_linear_1_126" x1="105" y1="424" x2="105" y2="482" gradientUnits="userSpaceOnUse">
<stop stop-color="#46BDF0"/>
<stop offset="1" stop-color="#46B3F0" stop-opacity="0.15"/>
</linearGradient>
<linearGradient id="paint2_linear_1_126" x1="269" y1="767" x2="269" y2="825" gradientUnits="userSpaceOnUse">
<stop stop-color="#F0B646"/>
<stop offset="1" stop-color="#F0CB46" stop-opacity="0.15"/>
</linearGradient>
<linearGradient id="paint3_linear_1_126" x1="20" y1="126" x2="20" y2="196" gradientUnits="userSpaceOnUse">
<stop stop-color="#46F080"/>
<stop offset="1" stop-color="#46F08A" stop-opacity="0.15"/>
</linearGradient>
<linearGradient id="paint4_linear_1_126" x1="298" y1="0" x2="298" y2="70" gradientUnits="userSpaceOnUse">
<stop stop-color="#EDF046"/>
<stop offset="1" stop-color="#F0E946" stop-opacity="0.15"/>
</linearGradient>
<clipPath id="clip0_1_126">
<rect width="375" height="812" fill="white"/>
</clipPath>
</defs>
</svg>
