<svg width="26" height="26" viewBox="0 0 26 26" fill="none" xmlns="http://www.w3.org/2000/svg">
<path d="M17.6376 14.1028C17.5814 14.1611 17.3696 14.4104 17.1721 14.6156C16.0148 15.9057 12.9882 18.0241 11.4013 18.6748C11.1603 18.7793 10.5508 19.001 10.2246 19.017C9.91186 19.0189 9.61333 18.9487 9.32798 18.8044C8.97215 18.6026 8.68574 18.2833 8.52756 17.9053C8.42563 17.6429 8.26497 16.8568 8.26489 16.8428C8.10378 15.9828 8.00955 14.5844 8.00014 13.0384C7.99118 11.5654 8.06875 10.2229 8.19105 9.34815C8.20557 9.33407 8.35549 8.35514 8.52393 8.0191C8.83292 7.40521 9.44141 7.02151 10.0951 7.01753L10.1516 7.01719C10.5774 7.0296 11.4749 7.40414 11.475 7.41814C12.984 8.05098 15.9654 10.0299 17.1669 11.3496C17.1669 11.3496 17.505 11.6885 17.6524 11.9007C17.8823 12.2053 17.9976 12.5836 17.9999 12.9626C18.0024 13.3856 17.8772 13.7803 17.6376 14.1028Z" fill="#24252C"/>
</svg>
